<svg width="171" height="18" viewBox="0 0 171 18" fill="none" xmlns="http://www.w3.org/2000/svg"><path d="M10.85 3.37c-.7-.48-1.62-.56-3.11.37C5.17 5.49 3 8.07 2.85 12.22c-.02.1-.28-.01-.33-.04a5.9 5.9 0 01-.38-4.75c.1-.18-.25-.4-.31-.33-.13.12-.66.69-1.01 1.3a6.28 6.28 0 004.8 9.35 6.32 6.32 0 006.24-3.2C13.82 11.01 12 4 10.85 3.36z" fill="#7AAC41"/><path d="M21.76 5.06c-3.61 0-6.24 2.69-6.24 6.4 0 3.72 2.62 6.33 6.37 6.33 1.9 0 3.39-.6 4.58-1.81.36-.38.4-.75.4-.9 0-.6-.45-1.04-1.07-1.04-.31 0-.57.12-.87.4a4.19 4.19 0 01-3.04 1.27 3.76 3.76 0 01-3.83-3.52h8.17c.89 0 1.32-.42 1.32-1.27 0-.25 0-.43-.05-.79-.44-3.17-2.59-5.07-5.74-5.07zm0 1.98c1.96 0 3.22 1.25 3.3 3.27h-7a3.65 3.65 0 013.7-3.27zm13.58-1.98c-1.64 0-3.27.94-3.9 2.26V6.5c0-1.26-.97-1.32-1.17-1.32-.58 0-1.2.34-1.2 1.32v9.78c0 1.3 1.04 1.37 1.25 1.37.2 0 1.25-.06 1.25-1.37v-5.24c0-2.29 1.29-3.88 3.14-3.88 1.8 0 2.67 1.18 2.67 3.6v5.52c0 1.3 1.03 1.37 1.24 1.37.2 0 1.24-.06 1.24-1.37V10c0-2.39-1.18-4.93-4.52-4.93zm15.78.13c-.58 0-1 .33-1.24 1l-3.4 8.55-3.38-8.56c-.27-.67-.68-1-1.27-1-.68 0-1.24.54-1.24 1.2 0 .16.02.37.16.7l3.9 9.24c.47 1.11 1.24 1.34 1.8 1.34s1.33-.23 1.8-1.34l3.93-9.29c.13-.32.15-.56.15-.68 0-.66-.52-1.16-1.21-1.16zm7.23-.13a7.1 7.1 0 00-4.17 1.25c-.38.25-.56.57-.56.98 0 .55.43.99.97.99.23 0 .5-.1.74-.26a4.89 4.89 0 012.79-.93c1.84 0 2.9.94 2.9 2.57v.27c-4.13 0-8.33.5-8.33 4.1 0 2.58 2.2 3.73 4.4 3.73 1.74 0 3.13-.69 4.02-2v.64c0 .93.63 1.26 1.17 1.26.12 0 1.12-.03 1.12-1.26V9.8c0-2.97-1.89-4.75-5.05-4.75zm2.14 6.7h.52v.57c0 2.1-1.33 3.45-3.4 3.45-.55 0-2.38-.13-2.38-1.8 0-1.99 3-2.22 5.26-2.22zm9.39-4.31c1.08 0 1.14-.85 1.14-1.02 0-.5-.3-1.04-1.14-1.04h-2.24V3.13c0-1.02-.66-1.38-1.22-1.38-.2 0-1.24.07-1.24 1.38v10.74c0 2.48 1.22 3.8 3.54 3.8.6 0 1.18-.11 1.56-.3.44-.2.69-.57.69-.98 0-.57-.42-.99-1-.99-.1 0-.26.03-.44.08a2 2 0 01-.51.07c-.94 0-1.38-.61-1.38-1.93V7.45h2.24zm8.22-2.39c-3.76 0-6.5 2.67-6.5 6.34 0 1.79.67 3.42 1.87 4.59a6.56 6.56 0 004.63 1.8 6.31 6.31 0 006.51-6.39c0-3.67-2.74-6.34-6.51-6.34zm0 10.62c-2.58 0-3.93-2.15-3.93-4.28 0-2.92 2.04-4.26 3.93-4.26 1.9 0 3.93 1.34 3.93 4.26 0 2.94-2.04 4.28-3.93 4.28z" fill="#131412"/><path d="M92.16 4.78c-.96 0-1.9.29-2.7.83a5.56 5.56 0 00-1.92 2.27 7.22 7.22 0 00-.69 3.14v.5c0 1.13.24 2.19.72 3.13.48.95 1.15 1.7 2 2.25.84.54 1.79.82 2.8.82a4.8 4.8 0 004.22-2.06.37.37 0 00-.1-.51l-.4-.3a.37.37 0 00-.52.08c-.38.5-.84.87-1.33 1.1a4.33 4.33 0 01-3.96-.27 4.4 4.4 0 01-1.53-1.77 5.56 5.56 0 01-.57-2.49v-.27h8.45a.37.37 0 00.37-.37v-.62c0-1.6-.45-2.93-1.34-3.93a4.5 4.5 0 00-3.5-1.53zM88.27 9.9c.18-1.05.6-1.93 1.25-2.63a3.45 3.45 0 012.64-1.16c.66 0 1.26.18 1.78.51.53.35.96.83 1.26 1.45.28.57.44 1.18.46 1.83h-7.39zM99.51.21h-.6a.37.37 0 00-.36.37v16.7c0 .2.16.37.37.37h.59a.37.37 0 00.37-.37V.58a.37.37 0 00-.37-.37zm7.2 4.57c-.95 0-1.9.29-2.69.83a5.56 5.56 0 00-1.92 2.27 7.21 7.21 0 00-.69 3.14v.5c0 1.13.24 2.19.72 3.13.47.95 1.14 1.7 1.99 2.25.85.54 1.8.82 2.82.82a4.8 4.8 0 004.2-2.06.37.37 0 00-.09-.51l-.41-.3a.37.37 0 00-.5.08c-.4.5-.85.87-1.35 1.1a4.32 4.32 0 01-3.95-.27 4.4 4.4 0 01-1.53-1.77 5.55 5.55 0 01-.57-2.49v-.27h8.45a.37.37 0 00.37-.37v-.62c0-1.6-.46-2.93-1.35-3.93a4.5 4.5 0 00-3.5-1.53zm-3.88 5.12c.17-1.05.6-1.93 1.25-2.63a3.45 3.45 0 012.64-1.16c.66 0 1.25.17 1.78.51.53.35.95.83 1.26 1.45.28.57.43 1.18.46 1.83h-7.4zm23.47-5a5.14 5.14 0 00-4.22 2.17 3.17 3.17 0 00-1.13-1.46 4.53 4.53 0 00-2.63-.72c-.97 0-1.87.29-2.67.85-.42.3-.8.67-1.12 1.1V5.49a.37.37 0 00-.37-.37h-.6c-.1 0-.19.04-.26.11a.37.37 0 00-.1.26v11.76c0 .2.16.37.36.37h.6a.37.37 0 00.34-.22l.03-.15V9.85c.15-.75.46-1.46.9-2.08a3.36 3.36 0 012.86-1.55c1 0 1.73.25 2.16.74.45.5.68 1.3.69 2.39v7.9c0 .2.16.36.37.36h.59a.37.37 0 00.37-.37V9.45c.03-.53.27-1.09.7-1.67a3.7 3.7 0 013.1-1.56c1.01-.01 1.7.24 2.16.78.45.54.69 1.43.69 2.62v7.62c0 .2.16.37.37.37h.58a.37.37 0 00.38-.37V9.57c-.01-1.52-.36-2.69-1.03-3.47-.7-.8-1.74-1.2-3.12-1.2zm11.06-.12c-.96 0-1.9.29-2.7.83a5.57 5.57 0 00-1.91 2.27 7.22 7.22 0 00-.7 3.14v.5c0 1.13.25 2.19.72 3.13.48.95 1.15 1.7 2 2.25.85.54 1.8.82 2.81.82a4.8 4.8 0 004.2-2.06.37.37 0 00-.08-.51l-.42-.3a.37.37 0 00-.5.08c-.4.5-.84.87-1.34 1.1a4.32 4.32 0 01-3.95-.27 4.42 4.42 0 01-1.54-1.77 5.58 5.58 0 01-.56-2.49v-.27h8.44a.37.37 0 00.37-.37v-.62c0-1.6-.45-2.93-1.34-3.93a4.5 4.5 0 00-3.5-1.53zm-3.89 5.12c.18-1.05.6-1.93 1.25-2.63a3.45 3.45 0 012.64-1.16c.67 0 1.25.17 1.79.51.53.35.95.83 1.25 1.45.28.57.44 1.18.47 1.83h-7.4zM149 4.87c-.96 0-1.9.3-2.69.86-.42.3-.8.66-1.11 1.08V5.46a.37.37 0 00-.37-.37h-.59a.37.37 0 00-.37.37v11.76c0 .2.17.37.37.37h.59a.37.37 0 00.37-.37V9.74c.25-1.04.71-1.9 1.4-2.56a3.27 3.27 0 012.37-.98c.98 0 1.7.26 2.13.77.45.54.68 1.4.68 2.56v7.7c0 .2.17.36.38.36h.58c.2 0 .37-.16.37-.37V9.54c0-1.52-.35-2.69-1.02-3.47-.68-.8-1.72-1.2-3.09-1.2zm11.44 11.43c-1.18.17-1.85.12-2.16-.34a3.03 3.03 0 01-.35-1.64V6.33h2.3a.37.37 0 00.38-.37v-.59a.37.37 0 00-.37-.37h-2.3V2.2a.37.37 0 00-.12-.26.38.38 0 00-.26-.11h-.6a.37.37 0 00-.37.37V5h-1.8a.37.37 0 00-.34.23.37.37 0 00-.03.14v.59c0 .2.16.37.37.37h1.8v8.06c.01 1.12.22 1.93.65 2.48.44.56 1.16.85 2.13.85.63 0 1.07-.05 1.35-.15a.37.37 0 00.24-.41l-.1-.56a.37.37 0 00-.41-.3zm10.14-3.76a3.5 3.5 0 00-1.37-1.21c-.6-.32-1.4-.6-2.4-.83-.94-.22-1.66-.44-2.14-.67a2.57 2.57 0 01-.96-.7 1.7 1.7 0 01-.27-1.03c0-.55.25-1 .76-1.39.53-.4 1.28-.6 2.22-.6.98 0 1.78.24 2.38.72.58.45.86 1 .86 1.68 0 .2.16.37.37.37h.6a.37.37 0 00.37-.37c0-1.14-.44-2.06-1.3-2.74a5.18 5.18 0 00-3.28-.99c-1.24 0-2.28.31-3.07.92a2.94 2.94 0 00-1.23 2.42c0 .97.33 1.74.98 2.3.63.54 1.68.95 3.22 1.28 2.26.48 3.36 1.31 3.36 2.55 0 .58-.27 1.06-.83 1.48-.6.44-1.38.66-2.34.66a4.4 4.4 0 01-2.51-.62c-.58-.4-.89-.94-.94-1.65a.37.37 0 00-.37-.35h-.58a.37.37 0 00-.38.38c0 1.06.46 1.93 1.37 2.6.87.65 2.01.97 3.4.97 1.31 0 2.4-.3 3.22-.92a3.02 3.02 0 001.29-2.54c0-.66-.15-1.24-.43-1.72z" fill="#7AAC41"/></svg>
