<svg width="206" height="48" xmlns="http://www.w3.org/2000/svg">
  <path d="M96.8 13.89a7.14 7.14 0 00-3-2.87 10.2 10.2 0 00-4.95-1.11 9.79 9.79 0 00-8 3.98c-1.58-2.67-4.22-3.98-7.92-3.98-2.92 0-5.2 1-6.9 2.98v-2.3h-7.55v25.95h7.55V22.6a9.82 9.82 0 01.65-3.58c.29-.76.73-1.36 1.42-1.8a4.4 4.4 0 012.48-.67c2.8 0 4.22 1.63 4.22 4.9v15.11h7.55V22.25c.29-3.82 1.79-5.7 4.5-5.7 1.14 0 2.04.32 2.69.96.65.64 1.1 1.27 1.25 1.91.17.64.25 1.31.25 2.03v15.12h7.55V19.86c0-.88-.12-1.8-.4-2.75a15.9 15.9 0 00-1.39-3.22zM107.92 0c-1.21 0-2.23.44-3.04 1.27a4.02 4.02 0 00-1.26 2.99c0 1.15.4 2.15 1.26 2.98a4.22 4.22 0 003.04 1.28c1.22 0 2.24-.44 3.05-1.28a4.02 4.02 0 001.26-2.98c0-1.16-.41-2.15-1.26-2.99A4.09 4.09 0 00107.92 0zM111.66 10.63h-7.55v25.94h7.55V10.63zM178.92 38.72c-1.22 0-2.23.44-3.05 1.28a4.02 4.02 0 00-1.25 2.98c0 1.16.4 2.15 1.25 2.99a4.22 4.22 0 003.05 1.27c1.22 0 2.23-.44 3.04-1.27a4.02 4.02 0 001.26-2.99c0-1.15-.4-2.15-1.26-2.98a4.07 4.07 0 00-3.04-1.28zM182.7 10.63h-7.56v25.94h7.55V10.63zM133.62 10.63l-4.95 7.2-4.92-7.2h-8.44l9.01 12.9-9 13.04h8.43l4.92-7.24 4.95 7.24h8.44l-8.97-13.05 8.97-12.9h-8.44zM170.19 10.63h-9.1l-7.83 10.62V10.63h-7.55v25.94h7.55V25.51l8.93 11.06h9.66l-10.71-13.2 9.05-12.74zM199.38 10.63c0-4.1-3.37-7.4-7.56-7.4v7.4h-5.19v6.6h5.2v9.24c0 1.87.28 3.5.89 4.9a8.99 8.99 0 001.95 3.02 8.89 8.89 0 002.64 1.5c1.05.37 1.78.57 2.27.6.48.04.97.08 1.54.08 1.66 0 3.29-.07 4.83-.23v-6.25c-.77.08-1.46.16-2.15.2-.85 0-1.54-.12-2.2-.36a3.47 3.47 0 01-1.33-.84 2.7 2.7 0 01-.61-1.03 2.7 2.7 0 01-.24-.84c-.04-.16-.04-.28-.04-.36v-9.63h6.61v-6.6h-6.62z" fill="#2A2A2A" />
  <path d="M15.9 36.74a34.62 34.62 0 019.14-15.42 35.2 35.2 0 00-11.47-7.62C9.27 11.93 4.66 10.4 0 10.42v26.32h15.9z" fill="#58C8D1"/>
  <path d="M34.06 36.74H49.9V10.42c-9.32-.01-18.26 4.41-24.86 10.9a34.6 34.6 0 019.02 15.42z" fill="#F3556F"/>
  <path d="M15.9 36.74h18.16a34.6 34.6 0 00-9.02-15.42 34.62 34.62 0 00-9.15 15.42z" fill="#383B76"/>
</svg>
